<svg width="204" height="37" viewBox="0 0 204 37" fill="none" xmlns="http://www.w3.org/2000/svg">
<path d="M43.6513 26.4715V9.79304H48.4477C50.099 9.79304 51.5028 10.0437 52.6587 10.5449C53.8146 11.031 54.7454 11.6917 55.451 12.5272C56.1716 13.3627 56.6969 14.2969 57.0273 15.3298C57.3576 16.3475 57.5227 17.3728 57.5227 18.4057C57.5227 19.6361 57.2975 20.7525 56.8471 21.7551C56.4118 22.7424 55.8113 23.5931 55.0456 24.307C54.2951 25.0058 53.4168 25.5449 52.411 25.9247C51.4201 26.2892 50.3692 26.4715 49.2584 26.4715H43.6513ZM46.6012 23.5779H48.7404C49.8664 23.5779 50.8572 23.3728 51.7129 22.9627C52.5686 22.5525 53.2367 21.9526 53.717 21.1627C54.2124 20.3576 54.4601 19.3702 54.4601 18.2006C54.4601 17.1222 54.28 16.2259 53.9197 15.512C53.5745 14.7982 53.139 14.2361 52.6136 13.826C52.0882 13.4006 51.5253 13.1044 50.9247 12.9373C50.3393 12.7551 49.7988 12.6639 49.3034 12.6639H46.6012V23.5779ZM61.4775 16.6513H64.3373V26.4715H61.4775V16.6513ZM61.4099 13.1652C61.4099 12.7398 61.575 12.3905 61.9053 12.1171C62.2506 11.8284 62.6185 11.6842 63.0087 11.6842C63.399 11.6842 63.7518 11.8284 64.0671 12.1171C64.3974 12.3905 64.5625 12.7398 64.5625 13.1652C64.5625 13.6057 64.3974 13.9627 64.0671 14.2361C63.7518 14.5095 63.399 14.6462 63.0087 14.6462C62.6185 14.6462 62.2506 14.5095 61.9053 14.2361C61.575 13.9627 61.4099 13.6057 61.4099 13.1652ZM71.8668 26.6766C71.1012 26.6766 70.3806 26.5399 69.705 26.2665C69.0295 25.993 68.4589 25.6057 67.9936 25.1044L69.1871 23.4867C69.6375 23.9121 70.0728 24.2234 70.4932 24.4209C70.9134 24.6032 71.2963 24.6943 71.6416 24.6943C72.047 24.6943 72.3847 24.626 72.655 24.4892C72.9401 24.3525 73.0828 24.1247 73.0828 23.8057C73.0828 23.517 72.9777 23.2969 72.7676 23.1449C72.5573 22.9779 72.2947 22.8412 71.9794 22.7348C71.6641 22.6284 71.3188 22.5222 70.9436 22.4158C70.0879 22.1272 69.4573 21.7247 69.052 21.2082C68.6467 20.6766 68.444 20.0842 68.444 19.431C68.444 18.9298 68.5715 18.436 68.8268 17.95C69.097 17.4487 69.5098 17.0386 70.0653 16.7196C70.6207 16.4006 71.3264 16.2411 72.1821 16.2411C72.9477 16.2411 73.6082 16.3247 74.1637 16.4918C74.7191 16.6588 75.2446 16.9322 75.74 17.312L74.6591 19.0209C74.3738 18.7778 74.0511 18.5804 73.6908 18.4285C73.3305 18.2614 73.0002 18.1703 72.7 18.1551C72.2947 18.1551 71.9644 18.2387 71.7092 18.4057C71.4689 18.5727 71.3489 18.7778 71.3489 19.0209C71.3338 19.3246 71.439 19.5677 71.6641 19.75C71.8893 19.917 72.1745 20.0538 72.5199 20.1601C72.8802 20.2513 73.2328 20.3576 73.5782 20.4791C74.2838 20.7222 74.8542 21.0563 75.2896 21.4817C75.7249 21.907 75.9427 22.4994 75.9427 23.2589C75.9427 23.8513 75.7925 24.4133 75.4923 24.9449C75.192 25.4614 74.7416 25.8791 74.1412 26.1981C73.5557 26.5171 72.7975 26.6766 71.8668 26.6766ZM86.0207 26.7222C85.18 26.7222 84.4669 26.5702 83.8814 26.2665C83.2959 25.9627 82.8005 25.5677 82.3952 25.0817L82.6204 24.3981V26.4715H79.7605V8.58545H82.6204V18.4968L82.5979 17.5399C82.9732 17.145 83.4912 16.826 84.1517 16.5829C84.8123 16.3247 85.5629 16.1956 86.4035 16.1956C87.2592 16.1956 88.0324 16.4006 88.7229 16.8108C89.4286 17.2209 89.9916 17.8133 90.4118 18.588C90.8473 19.3474 91.0648 20.2741 91.0648 21.3677C91.0648 22.4766 90.8247 23.4336 90.3442 24.2386C89.879 25.0436 89.2634 25.6588 88.4977 26.0842C87.7321 26.5095 86.9065 26.7222 86.0207 26.7222ZM85.3902 24.2842C85.9006 24.2842 86.3661 24.1627 86.7863 23.9196C87.2067 23.6614 87.537 23.312 87.7771 22.8715C88.0324 22.4158 88.16 21.907 88.16 21.3449C88.16 20.7981 88.0324 20.3121 87.7771 19.8867C87.522 19.4463 87.1842 19.1045 86.7638 18.8614C86.3585 18.6032 85.9006 18.4741 85.3902 18.4741C84.7297 18.4741 84.1517 18.6411 83.6562 18.9753C83.1608 19.2943 82.8156 19.7197 82.6204 20.2513V22.5525C82.8757 23.0994 83.2284 23.5247 83.6788 23.8285C84.1442 24.1322 84.7146 24.2842 85.3902 24.2842ZM97.8708 26.9272C96.985 26.9272 96.2494 26.6538 95.664 26.107C95.0785 25.5601 94.7707 24.8538 94.7407 23.988V16.6513H97.6006V22.9171C97.6305 23.3728 97.7506 23.7449 97.9609 24.0336C98.186 24.307 98.5463 24.4512 99.0417 24.4665C99.5221 24.4665 99.9425 24.307 100.303 23.988C100.663 23.669 100.941 23.2361 101.136 22.6892C101.346 22.1272 101.451 21.5044 101.451 20.8209V16.6513H104.311V26.4715H101.721L101.496 24.512L101.564 24.7627C101.249 25.4006 100.768 25.9247 100.123 26.3348C99.4921 26.7297 98.7414 26.9272 97.8708 26.9272ZM111.364 16.6513L111.635 19.3854L111.567 18.9981C111.837 18.4057 112.212 17.9044 112.693 17.4943C113.188 17.0842 113.676 16.7652 114.157 16.5373C114.652 16.3095 115.042 16.1956 115.328 16.1956L115.192 19.0892C114.472 19.0133 113.841 19.1424 113.301 19.4766C112.775 19.7956 112.37 20.2285 112.085 20.7753C111.8 21.3069 111.657 21.869 111.657 22.4614V26.4715H108.797V16.6513H111.364ZM121.979 26.6766C121.214 26.6766 120.493 26.5399 119.817 26.2665C119.142 25.993 118.571 25.6057 118.106 25.1044L119.3 23.4867C119.75 23.9121 120.185 24.2234 120.606 24.4209C121.026 24.6032 121.409 24.6943 121.754 24.6943C122.159 24.6943 122.497 24.626 122.767 24.4892C123.053 24.3525 123.195 24.1247 123.195 23.8057C123.195 23.517 123.09 23.2969 122.88 23.1449C122.67 22.9779 122.407 22.8412 122.092 22.7348C121.777 22.6284 121.431 22.5222 121.056 22.4158C120.2 22.1272 119.57 21.7247 119.164 21.2082C118.759 20.6766 118.556 20.0842 118.556 19.431C118.556 18.9298 118.684 18.436 118.939 17.95C119.209 17.4487 119.622 17.0386 120.178 16.7196C120.733 16.4006 121.439 16.2411 122.294 16.2411C123.06 16.2411 123.721 16.3247 124.276 16.4918C124.832 16.6588 125.357 16.9322 125.852 17.312L124.772 19.0209C124.486 18.7778 124.164 18.5804 123.803 18.4285C123.443 18.2614 123.113 18.1703 122.812 18.1551C122.407 18.1551 122.077 18.2387 121.822 18.4057C121.582 18.5727 121.461 18.7778 121.461 19.0209C121.446 19.3246 121.551 19.5677 121.777 19.75C122.002 19.917 122.287 20.0538 122.632 20.1601C122.993 20.2513 123.345 20.3576 123.691 20.4791C124.396 20.7222 124.967 21.0563 125.402 21.4817C125.838 21.907 126.055 22.4994 126.055 23.2589C126.055 23.8513 125.905 24.4133 125.605 24.9449C125.305 25.4614 124.854 25.8791 124.254 26.1981C123.668 26.5171 122.91 26.6766 121.979 26.6766ZM134.579 26.7222C133.423 26.7222 132.433 26.5019 131.607 26.0614C130.796 25.6057 130.173 24.983 129.738 24.193C129.318 23.4031 129.107 22.4994 129.107 21.4817C129.107 20.4944 129.355 19.6058 129.851 18.8158C130.346 18.0259 131.006 17.3956 131.832 16.9247C132.673 16.4538 133.611 16.2184 134.647 16.2184C135.998 16.2184 137.117 16.6209 138.002 17.426C138.888 18.2159 139.466 19.3551 139.736 20.8437L132.08 23.3728L131.427 21.7779L137.192 19.75L136.584 20.069C136.449 19.6436 136.208 19.2715 135.863 18.9525C135.533 18.6335 135.052 18.4741 134.422 18.4741C133.671 18.4741 133.063 18.7322 132.598 19.2487C132.147 19.7652 131.922 20.4488 131.922 21.2994C131.922 22.2411 132.177 22.9702 132.688 23.4867C133.213 24.0032 133.866 24.2614 134.647 24.2614C135.007 24.2614 135.353 24.2006 135.683 24.0791C136.028 23.9424 136.366 23.7677 136.696 23.5551L137.957 25.7196C137.447 26.0234 136.892 26.2665 136.291 26.4487C135.705 26.631 135.135 26.7222 134.579 26.7222Z" fill="#46586D"/>
<path d="M21.2481 36.8671C30.1481 36.8671 37.363 29.5669 37.363 20.5617C37.363 11.5565 30.1481 4.25635 21.2481 4.25635C12.3482 4.25635 5.13333 11.5565 5.13333 20.5617C5.13333 29.5669 12.3482 36.8671 21.2481 36.8671Z" fill="url(#paint0_linear_3_36)"/>
<path fill-rule="evenodd" clip-rule="evenodd" d="M16.3668 1.47156C13.9565 1.72861 11.4713 2.54296 9.48391 3.72688C6.55059 5.47418 4.0831 8.24693 2.69188 11.3592C2.24214 12.3651 2.19813 12.592 2.37784 12.9753C2.55838 13.3604 2.90852 13.5482 3.33741 13.49C3.77851 13.4302 3.97591 13.201 4.3563 12.3079C6.2385 7.8889 10.3382 4.57075 15.099 3.61294C16.2464 3.38212 18.453 3.30358 19.679 3.44993C25.0967 4.09671 29.725 7.71945 31.7609 12.9068C32.0121 13.5472 32.4907 15.1799 32.4907 15.3971C32.4907 15.4691 32.345 15.3811 32.1256 15.1765C31.8106 14.8824 31.7105 14.836 31.3934 14.836C31.1079 14.836 30.9702 14.8864 30.7753 15.0629C30.4762 15.3333 30.3711 15.8442 30.5458 16.1776C30.6068 16.2941 31.1107 16.8844 31.6654 17.4894C32.2202 18.0945 32.8116 18.7422 32.9799 18.9287C33.1481 19.1153 33.3865 19.2872 33.5096 19.3111C33.8525 19.3774 34.2509 19.2303 34.4823 18.9521C34.6699 18.7264 34.691 18.6318 34.6887 18.0264C34.6838 16.7145 34.4029 14.9052 33.9886 13.516C32.3501 8.02229 28.0092 3.65626 22.6288 2.09045C20.7114 1.53244 18.16 1.28024 16.3668 1.47156ZM1.76558 17.4164C1.39464 17.6063 1.19259 18.0213 1.19259 18.5931C1.19259 19.2715 1.33132 20.6525 1.48235 21.4771C2.78797 28.6061 8.56759 34.1783 15.683 35.1676C17.5046 35.4208 19.9429 35.3054 21.7224 34.8816C26.5506 33.7319 30.6837 30.4383 32.9016 25.9732C33.7554 24.2541 33.826 23.7897 33.306 23.3127C32.8398 22.8852 32.1181 23.0798 31.8587 23.7031C31.4641 24.6517 30.5497 26.3539 30.065 27.0424C29.4197 27.9592 28.1444 29.329 27.2771 30.0372C22.9498 33.5701 16.9717 34.3787 11.9441 32.111C9.37033 30.9501 7.01157 28.9172 5.49273 26.5507C4.91265 25.6468 4.29583 24.3957 3.96769 23.4569C3.7402 22.8063 3.31213 21.1965 3.31181 20.9907C3.31181 20.9502 3.51125 21.1078 3.75512 21.3413C4.12042 21.691 4.25034 21.7657 4.49274 21.7657C4.90736 21.7657 5.22262 21.5752 5.3867 21.2251C5.64653 20.6709 5.55215 20.4999 4.1474 18.9798C3.44596 18.2207 2.77836 17.5349 2.66392 17.4558C2.42023 17.2874 2.04946 17.271 1.76558 17.4164Z" fill="#46586D"/>
<path d="M25.963 13.9799V13.9711C25.963 13.5616 25.6362 13.2278 25.2353 13.2278H23.4444C22.6513 11.7058 21.0348 10.6646 19.1653 10.6646H14.6685C13.7447 10.6646 12.9952 11.43 12.9952 12.3734V13.2278H11.6313C11.2305 13.2278 10.9037 13.5616 10.9037 13.9711V13.9799C10.9037 14.3893 11.2305 14.7231 11.6313 14.7231H12.9952V16.0047H11.6313C11.2305 16.0047 10.9037 16.3385 10.9037 16.748V16.7568C10.9037 17.1662 11.2305 17.5 11.6313 17.5H12.9952V24.9763C12.9952 25.5637 13.4659 26.0443 14.0411 26.0443C14.6162 26.0443 15.0868 25.5637 15.0868 24.9763V20.0633C15.0868 20.0633 18.9431 20.0633 19.1653 20.0633C21.0348 20.0633 22.6513 19.022 23.4444 17.5H25.2353C25.6362 17.5 25.963 17.1662 25.963 16.7568V16.748C25.963 16.3385 25.6362 16.0047 25.2353 16.0047H23.9236C23.9542 15.7955 23.976 15.5819 23.976 15.3639C23.976 15.1459 23.9542 14.9323 23.9236 14.7231H25.2353C25.6362 14.7231 25.963 14.3893 25.963 13.9799ZM15.0868 12.3734H19.0608C19.8582 12.3734 20.5772 12.7027 21.1045 13.2278H15.0868V12.3734ZM19.0608 18.3544H15.0868V17.5H21.1045C20.5772 18.0252 19.8582 18.3544 19.0608 18.3544ZM21.9193 16.0047H15.0868V14.7231H21.9193C21.9628 14.9279 21.989 15.1415 21.989 15.3639C21.989 15.5864 21.9628 15.8 21.9193 16.0047Z" fill="#46586D"/>
<defs>
<linearGradient id="paint0_linear_3_36" x1="51.1195" y1="4.25635" x2="1.49578" y2="8.31892" gradientUnits="userSpaceOnUse">
<stop stop-color="#FCB115" stop-opacity="0"/>
<stop offset="1" stop-color="#00A8EF" stop-opacity="0.32"/>
</linearGradient>
</defs>
</svg>
